<svg xmlns="http://www.w3.org/2000/svg" xmlns:xlink="http://www.w3.org/1999/xlink" version="1" viewBox="0 0 380 200"><rect width="379" height="199" fill="#fff"/><rect width="379" height="16" y="183" fill="#bf0a30"/><rect width="379" height="16" y="151" fill="#bf0a30"/><rect width="379" height="15" y="120" fill="#bf0a30"/><rect width="379" height="15" y="90" fill="#bf0a30"/><rect width="379" height="15" y="60" fill="#bf0a30"/><rect width="379" height="15" y="30" fill="#bf0a30"/><rect width="379" height="15" fill="#bf0a30"/><rect width="152" height="105" fill="#002868"/><path fill="#fff" stroke-width="1.07" d="m 6.31,93.64 4.36,-0.50 1.70,-4.27 1.77,4.24 4.40,0.37 -3.30,3.14 1.01,4.50 -3.83,-2.31 -3.78,2.43 0.88,-4.56 z m 0,0 4.36,-0.50 1.70,-4.27 1.77,4.24 4.40,0.37 -3.30,3.14 1.01,4.50 -3.83,-2.31 -3.78,2.43 0.88,-4.56 m -3.24,-3.04 4.36,-0.50 1.70,-4.27 1.77,4.24 4.40,0.37 -3.30,3.14 1.01,4.50 -3.83,-2.31 -3.78,2.43 0.88,-4.56 m -3.24,-3.04 4.36,-0.50 1.70,-4.27 1.77,4.24 4.40,0.37 -3.30,3.14 1.01,4.50 -3.83,-2.31 -3.78,2.43 0.88,-4.56 m -3.24,-3.04 4.36,-0.50 1.70,-4.27 1.77,4.24 4.40,0.37 -3.30,3.14 1.01,4.50 -3.83,-2.31 -3.78,2.43 0.88,-4.56"/><path id="s" fill="#fff" stroke-width="1.07" d="m 6.31,9.64 4.36,-0.50 1.70,-4.27 1.77,4.24 4.40,0.37 -3.30,3.14 1.01,4.50 -3.83,-2.31 -3.78,2.43 0.88,-4.56 z"/><use x="25" xlink:href="#s"/><use x="51" xlink:href="#s"/><use x="76" xlink:href="#s"/><use x="101" xlink:href="#s"/><use x="127" xlink:href="#s"/><use x="13" y="11" xlink:href="#s"/><use x="38.5" y="11" xlink:href="#s"/><use x="64" y="11" xlink:href="#s"/><use x="89.5" y="11" xlink:href="#s"/><use x="115" y="11" xlink:href="#s"/><use x="13" y="32" xlink:href="#s"/><use x="38.5" y="32" xlink:href="#s"/><use x="64" y="32" xlink:href="#s"/><use x="89.5" y="32" xlink:href="#s"/><use x="115" y="32" xlink:href="#s"/><use x="13" y="53" xlink:href="#s"/><use x="38.5" y="53" xlink:href="#s"/><use x="64" y="53" xlink:href="#s"/><use x="89.5" y="53" xlink:href="#s"/><use x="115" y="53" xlink:href="#s"/><use x="13" y="74" xlink:href="#s"/><use x="38.5" y="74" xlink:href="#s"/><use x="64" y="74" xlink:href="#s"/><use x="89.5" y="74" xlink:href="#s"/><use x="115" y="74" xlink:href="#s"/><use x="25" y="21" xlink:href="#s"/><use x="51" y="21" xlink:href="#s"/><use x="76" y="21" xlink:href="#s"/><use x="101" y="21" xlink:href="#s"/><use x="127" y="21" xlink:href="#s"/><use y="21" xlink:href="#s"/><use x="25" y="42" xlink:href="#s"/><use x="51" y="42" xlink:href="#s"/><use x="76" y="42" xlink:href="#s"/><use x="101" y="42" xlink:href="#s"/><use x="127" y="42" xlink:href="#s"/><use y="42" xlink:href="#s"/><use x="25" y="63" xlink:href="#s"/><use x="51" y="63" xlink:href="#s"/><use x="76" y="63" xlink:href="#s"/><use x="101" y="63" xlink:href="#s"/><use x="127" y="63" xlink:href="#s"/><use y="63" xlink:href="#s"/><use x="25" y="84" xlink:href="#s"/><use x="51" y="84" xlink:href="#s"/><use x="76" y="84" xlink:href="#s"/><use x="101" y="84" xlink:href="#s"/><use x="127" y="84" xlink:href="#s"/><use y="84" xlink:href="#s"/><path fill="#fff" d="M 0,199 379.07,3.98 379.7,201 Z"/><path fill="#00247d" d="m 220.6,200.2 -0.3,-72.6 158.7,0.2 0.2,72.3 z M 379,1.4 250,69.7 M 379,1.4 250,69.7 M 379,1.4 250,69.7 M 379,1.4 250,69.7"/><path fill="#00247d" d="M 379,1.4 251.13,69.77 378.7,69.7 Z"/><path fill="#00247d" d="m 0,199 141.5,-72.5 19.8,0.2 -0.10,72.38 z"/><path fill="#fff" d="m 380.6,178.4 -0.4,21.58 -33.1,0.01 -130,-68.2 1.5,-9.5 57.7,1.6 z m 0.2,-179.7 -133.4,71 m 133.4,-71 -133.4,71 m 133.4,-71 -133.4,71 m 133.4,-71 -133.4,71"/><path fill="#fff" d="M 380.8,-1.3 249.38,70.67 288.7,70.6 380.1,22.1 Z"/><path fill="#fff" d="M 0,199 149.49,122.11 164.1,122.1 l 0.1,14.5 -117.40,62.42 z"/><path fill="#cf142b" d="m 0,199 148.49,-76.40 13.15,0.00 -0.04,7.8 -130.24,68.83 z m 238.9,-75.4 28.8,0.9 112.3,60.2 -0.4,13 m -140.7,-74.1 28.8,0.9 112.3,60.2 -0.4,13 m -140.7,-74.1 28.8,0.9 112.3,60.2 -0.4,13 m -140.7,-74.1 28.8,0.9 112.3,60.2 -0.4,13"/><path fill="#cf142b" d="m 238.9,123.6 28.8,0.9 112.3,60.2 -0.4,13 z"/><path fill="#cf142b" d="M 379,116.7 160.1,116.5 232.7,79.3 379,79.6 Z m -169.8,82.8 0.4,-107.5 -37.9,19.1 0.1,88.8 m 37.4,-0.4 0.4,-107.5 -37.9,19.1 0.1,88.8 m 37.4,-0.4 0.4,-107.5 -37.9,19.1 0.1,88.8 m 37.4,-0.4 0.4,-107.5 -37.9,19.1 0.1,88.8"/><path fill="#cf142b" d="m 209.2,199.5 0.4,-107.5 -37.9,19.1 0.1,88.8 z"/></svg>