<svg xmlns="http://www.w3.org/2000/svg" xmlns:ns1="http://sozi.baierouge.fr" xmlns:svg="http://www.w3.org/2000/svg" xmlns:xlink="http://www.w3.org/1999/xlink" id="svg6800" version="1.0" viewBox="0 0 380 200"><g id="layer4" transform="translate(.5 -.5)"><rect id="rect8767" width="379" height="16" x="0" y="184" style="fill-rule:evenodd;fill:#bf0a30"/><rect id="rect8769" width="379" height="16" x="0" y="168" style="fill-rule:evenodd;fill:#fff"/><rect id="rect8771" width="379" height="16" x="0" y="152" style="fill-rule:evenodd;fill:#bf0a30"/><rect id="rect8773" width="379" height="16" x="0" y="136" style="fill-rule:evenodd;fill:#fff"/><rect id="rect8775" width="379" height="15" x="0" y="121" style="fill-rule:evenodd;fill:#bf0a30"/><rect id="rect8777" width="379" height="15" x="0" y="106" style="fill-rule:evenodd;fill:#fff"/><rect id="rect8779" width="379" height="15" x="0" y="91" style="fill-rule:evenodd;fill:#bf0a30"/><rect id="rect8781" width="379" height="15" x="0" y="76" style="fill-rule:evenodd;fill:#fff"/><rect id="rect8783" width="379" height="15" x="0" y="61" style="fill-rule:evenodd;fill:#bf0a30"/><rect id="rect8785" width="379" height="15" x="0" y="46" style="fill-rule:evenodd;fill:#fff"/><rect id="rect8787" width="379" height="15" x="0" y="31" style="fill-rule:evenodd;fill:#bf0a30"/><rect id="rect8791" width="379" height="15" x="0" y="16" style="fill-rule:evenodd;fill:#fff"/><rect id="rect8793" width="379" height="15" x="0" y="1" style="fill-rule:evenodd;fill:#bf0a30"/></g><g id="layer5" transform="translate(.5 -.5)"><rect id="rect8796" width="152" height="105" x="0" y="1" style="fill-rule:evenodd;fill:#002868"/></g><g id="layer6" transform="translate(.5 -.5)"><path id="path8825" d="m100.33 146.67 4.1389-0.77244 1.2751-4.0126 2.0136 3.6976 4.2102-0.0273-2.8944 3.0577 1.327 3.9958-3.8024-1.8078-3.3901 2.4968 0.54435-4.175z" transform="matrix(1.0487 .089951 -.085930 1.0977 -86.263 -76.411)" style="fill-rule:evenodd;fill:#fff"/><path id="path8827" d="m100.33 146.67 4.1389-0.77244 1.2751-4.0126 2.0136 3.6976 4.2102-0.0273-2.8944 3.0577 1.327 3.9958-3.8024-1.8078-3.3901 2.4968 0.54435-4.175z" transform="matrix(1.0487 .089951 -.085930 1.0977 -61.263 -76.411)" style="fill-rule:evenodd;fill:#fff"/><path id="path8829" d="m100.33 146.67 4.1389-0.77244 1.2751-4.0126 2.0136 3.6976 4.2102-0.0273-2.8944 3.0577 1.327 3.9958-3.8024-1.8078-3.3901 2.4968 0.54435-4.175z" transform="matrix(1.0487 .089951 -.085930 1.0977 -35.263 -76.411)" style="fill-rule:evenodd;fill:#fff"/><path id="path8831" d="m100.33 146.67 4.1389-0.77244 1.2751-4.0126 2.0136 3.6976 4.2102-0.0273-2.8944 3.0577 1.327 3.9958-3.8024-1.8078-3.3901 2.4968 0.54435-4.175z" transform="matrix(1.0487 .089951 -.085930 1.0977 -10.263 -76.411)" style="fill-rule:evenodd;fill:#fff"/><path id="path8833" d="m100.33 146.67 4.1389-0.77244 1.2751-4.0126 2.0136 3.6976 4.2102-0.0273-2.8944 3.0577 1.327 3.9958-3.8024-1.8078-3.3901 2.4968 0.54435-4.175z" transform="matrix(1.0487 .089951 -.085930 1.0977 14.737 -76.411)" style="fill-rule:evenodd;fill:#fff"/><path id="path8835" d="m100.33 146.67 4.1389-0.77244 1.2751-4.0126 2.0136 3.6976 4.2102-0.0273-2.8944 3.0577 1.327 3.9958-3.8024-1.8078-3.3901 2.4968 0.54435-4.175z" transform="matrix(1.0487 .089951 -.085930 1.0977 40.737 -76.411)" style="fill-rule:evenodd;fill:#fff"/><path id="path8837" d="m100.33 146.67 4.1389-0.77244 1.2751-4.0126 2.0136 3.6976 4.2102-0.0273-2.8944 3.0577 1.327 3.9958-3.8024-1.8078-3.3901 2.4968 0.54435-4.175z" transform="matrix(1.0487 .089951 -.085930 1.0977 -73.263 -86.411)" style="fill-rule:evenodd;fill:#fff"/><path id="path8839" d="m100.33 146.67 4.1389-0.77244 1.2751-4.0126 2.0136 3.6976 4.2102-0.0273-2.8944 3.0577 1.327 3.9958-3.8024-1.8078-3.3901 2.4968 0.54435-4.175z" transform="matrix(1.0487 .089951 -.085930 1.0977 -86.263 -97.411)" style="fill-rule:evenodd;fill:#fff"/><path id="path8841" d="m100.33 146.67 4.1389-0.77244 1.2751-4.0126 2.0136 3.6976 4.2102-0.0273-2.8944 3.0577 1.327 3.9958-3.8024-1.8078-3.3901 2.4968 0.54435-4.175z" transform="matrix(1.0487 .089951 -.085930 1.0977 -73.263 -107.41)" style="fill-rule:evenodd;fill:#fff"/><path id="path8843" d="m100.33 146.67 4.1389-0.77244 1.2751-4.0126 2.0136 3.6976 4.2102-0.0273-2.8944 3.0577 1.327 3.9958-3.8024-1.8078-3.3901 2.4968 0.54435-4.175z" transform="matrix(1.0487 .089951 -.085930 1.0977 -86.263 -118.41)" style="fill-rule:evenodd;fill:#fff"/><path id="path8845" d="m100.33 146.67 4.1389-0.77244 1.2751-4.0126 2.0136 3.6976 4.2102-0.0273-2.8944 3.0577 1.327 3.9958-3.8024-1.8078-3.3901 2.4968 0.54435-4.175z" transform="matrix(1.0487 .089951 -.085930 1.0977 -73.263 -128.41)" style="fill-rule:evenodd;fill:#fff"/><path id="path8847" d="m100.33 146.67 4.1389-0.77244 1.2751-4.0126 2.0136 3.6976 4.2102-0.0273-2.8944 3.0577 1.327 3.9958-3.8024-1.8078-3.3901 2.4968 0.54435-4.175z" transform="matrix(1.0487 .089951 -.085930 1.0977 -86.263 -139.41)" style="fill-rule:evenodd;fill:#fff"/><path id="path8849" d="m100.33 146.67 4.1389-0.77244 1.2751-4.0126 2.0136 3.6976 4.2102-0.0273-2.8944 3.0577 1.327 3.9958-3.8024-1.8078-3.3901 2.4968 0.54435-4.175z" transform="matrix(1.0487 .089951 -.085930 1.0977 -73.263 -149.41)" style="fill-rule:evenodd;fill:#fff"/><path id="path8851" d="m100.33 146.67 4.1389-0.77244 1.2751-4.0126 2.0136 3.6976 4.2102-0.0273-2.8944 3.0577 1.327 3.9958-3.8024-1.8078-3.3901 2.4968 0.54435-4.175z" transform="matrix(1.0487 .089951 -.085930 1.0977 -86.263 -160.41)" style="fill-rule:evenodd;fill:#fff"/><path id="path8853" d="m100.33 146.67 4.1389-0.77244 1.2751-4.0126 2.0136 3.6976 4.2102-0.0273-2.8944 3.0577 1.327 3.9958-3.8024-1.8078-3.3901 2.4968 0.54435-4.175z" transform="matrix(1.0487 .089951 -.085930 1.0977 -48.263 -86.411)" style="fill-rule:evenodd;fill:#fff"/><path id="path8855" d="m100.33 146.67 4.1389-0.77244 1.2751-4.0126 2.0136 3.6976 4.2102-0.0273-2.8944 3.0577 1.327 3.9958-3.8024-1.8078-3.3901 2.4968 0.54435-4.175z" transform="matrix(1.0487 .089951 -.085930 1.0977 -61.263 -97.411)" style="fill-rule:evenodd;fill:#fff"/><path id="path8857" d="m100.33 146.67 4.1389-0.77244 1.2751-4.0126 2.0136 3.6976 4.2102-0.0273-2.8944 3.0577 1.327 3.9958-3.8024-1.8078-3.3901 2.4968 0.54435-4.175z" transform="matrix(1.0487 .089951 -.085930 1.0977 -48.263 -107.41)" style="fill-rule:evenodd;fill:#fff"/><path id="path8859" d="m100.33 146.67 4.1389-0.77244 1.2751-4.0126 2.0136 3.6976 4.2102-0.0273-2.8944 3.0577 1.327 3.9958-3.8024-1.8078-3.3901 2.4968 0.54435-4.175z" transform="matrix(1.0487 .089951 -.085930 1.0977 -61.263 -118.41)" style="fill-rule:evenodd;fill:#fff"/><path id="path8861" d="m100.33 146.67 4.1389-0.77244 1.2751-4.0126 2.0136 3.6976 4.2102-0.0273-2.8944 3.0577 1.327 3.9958-3.8024-1.8078-3.3901 2.4968 0.54435-4.175z" transform="matrix(1.0487 .089951 -.085930 1.0977 -48.263 -128.41)" style="fill-rule:evenodd;fill:#fff"/><path id="path8863" d="m100.33 146.67 4.1389-0.77244 1.2751-4.0126 2.0136 3.6976 4.2102-0.0273-2.8944 3.0577 1.327 3.9958-3.8024-1.8078-3.3901 2.4968 0.54435-4.175z" transform="matrix(1.0487 .089951 -.085930 1.0977 -61.263 -139.41)" style="fill-rule:evenodd;fill:#fff"/><path id="path8865" d="m100.33 146.67 4.1389-0.77244 1.2751-4.0126 2.0136 3.6976 4.2102-0.0273-2.8944 3.0577 1.327 3.9958-3.8024-1.8078-3.3901 2.4968 0.54435-4.175z" transform="matrix(1.0487 .089951 -.085930 1.0977 -48.263 -149.41)" style="fill-rule:evenodd;fill:#fff"/><path id="path8867" d="m100.33 146.67 4.1389-0.77244 1.2751-4.0126 2.0136 3.6976 4.2102-0.0273-2.8944 3.0577 1.327 3.9958-3.8024-1.8078-3.3901 2.4968 0.54435-4.175z" transform="matrix(1.0487 .089951 -.085930 1.0977 -61.263 -160.41)" style="fill-rule:evenodd;fill:#fff"/><path id="path8869" d="m100.33 146.67 4.1389-0.77244 1.2751-4.0126 2.0136 3.6976 4.2102-0.0273-2.8944 3.0577 1.327 3.9958-3.8024-1.8078-3.3901 2.4968 0.54435-4.175z" transform="matrix(1.0487 .089951 -.085930 1.0977 -23.263 -86.411)" style="fill-rule:evenodd;fill:#fff"/><path id="path8871" d="m100.33 146.67 4.1389-0.77244 1.2751-4.0126 2.0136 3.6976 4.2102-0.0273-2.8944 3.0577 1.327 3.9958-3.8024-1.8078-3.3901 2.4968 0.54435-4.175z" transform="matrix(1.0487 .089951 -.085930 1.0977 -35.263 -97.411)" style="fill-rule:evenodd;fill:#fff"/><path id="path8873" d="m100.33 146.67 4.1389-0.77244 1.2751-4.0126 2.0136 3.6976 4.2102-0.0273-2.8944 3.0577 1.327 3.9958-3.8024-1.8078-3.3901 2.4968 0.54435-4.175z" transform="matrix(1.0487 .089951 -.085930 1.0977 14.737 -97.411)" style="fill-rule:evenodd;fill:#fff"/><path id="path8875" d="m100.33 146.67 4.1389-0.77244 1.2751-4.0126 2.0136 3.6976 4.2102-0.0273-2.8944 3.0577 1.327 3.9958-3.8024-1.8078-3.3901 2.4968 0.54435-4.175z" transform="matrix(1.0487 .089951 -.085930 1.0977 -10.263 -97.411)" style="fill-rule:evenodd;fill:#fff"/><path id="path8877" d="m100.33 146.67 4.1389-0.77244 1.2751-4.0126 2.0136 3.6976 4.2102-0.0273-2.8944 3.0577 1.327 3.9958-3.8024-1.8078-3.3901 2.4968 0.54435-4.175z" transform="matrix(1.0487 .089951 -.085930 1.0977 27.737 -86.411)" style="fill-rule:evenodd;fill:#fff"/><path id="path8879" d="m100.33 146.67 4.1389-0.77244 1.2751-4.0126 2.0136 3.6976 4.2102-0.0273-2.8944 3.0577 1.327 3.9958-3.8024-1.8078-3.3901 2.4968 0.54435-4.175z" transform="matrix(1.0487 .089951 -.085930 1.0977 2.7366 -86.411)" style="fill-rule:evenodd;fill:#fff"/><path id="path8881" d="m100.33 146.67 4.1389-0.77244 1.2751-4.0126 2.0136 3.6976 4.2102-0.0273-2.8944 3.0577 1.327 3.9958-3.8024-1.8078-3.3901 2.4968 0.54435-4.175z" transform="matrix(1.0487 .089951 -.085930 1.0977 -35.263 -160.41)" style="fill-rule:evenodd;fill:#fff"/><path id="path8883" d="m100.33 146.67 4.1389-0.77244 1.2751-4.0126 2.0136 3.6976 4.2102-0.0273-2.8944 3.0577 1.327 3.9958-3.8024-1.8078-3.3901 2.4968 0.54435-4.175z" transform="matrix(1.0487 .089951 -.085930 1.0977 -23.263 -149.41)" style="fill-rule:evenodd;fill:#fff"/><path id="path8885" d="m100.33 146.67 4.1389-0.77244 1.2751-4.0126 2.0136 3.6976 4.2102-0.0273-2.8944 3.0577 1.327 3.9958-3.8024-1.8078-3.3901 2.4968 0.54435-4.175z" transform="matrix(1.0487 .089951 -.085930 1.0977 -35.263 -139.41)" style="fill-rule:evenodd;fill:#fff"/><path id="path8887" d="m100.33 146.67 4.1389-0.77244 1.2751-4.0126 2.0136 3.6976 4.2102-0.0273-2.8944 3.0577 1.327 3.9958-3.8024-1.8078-3.3901 2.4968 0.54435-4.175z" transform="matrix(1.0487 .089951 -.085930 1.0977 -23.263 -128.41)" style="fill-rule:evenodd;fill:#fff"/><path id="path8889" d="m100.33 146.67 4.1389-0.77244 1.2751-4.0126 2.0136 3.6976 4.2102-0.0273-2.8944 3.0577 1.327 3.9958-3.8024-1.8078-3.3901 2.4968 0.54435-4.175z" transform="matrix(1.0487 .089951 -.085930 1.0977 -35.263 -118.41)" style="fill-rule:evenodd;fill:#fff"/><path id="path8891" d="m100.33 146.67 4.1389-0.77244 1.2751-4.0126 2.0136 3.6976 4.2102-0.0273-2.8944 3.0577 1.327 3.9958-3.8024-1.8078-3.3901 2.4968 0.54435-4.175z" transform="matrix(1.0487 .089951 -.085930 1.0977 -23.263 -107.41)" style="fill-rule:evenodd;fill:#fff"/><path id="path8893" d="m100.33 146.67 4.1389-0.77244 1.2751-4.0126 2.0136 3.6976 4.2102-0.0273-2.8944 3.0577 1.327 3.9958-3.8024-1.8078-3.3901 2.4968 0.54435-4.175z" transform="matrix(1.0487 .089951 -.085930 1.0977 40.737 -97.411)" style="fill-rule:evenodd;fill:#fff"/><path id="path8895" d="m100.33 146.67 4.1389-0.77244 1.2751-4.0126 2.0136 3.6976 4.2102-0.0273-2.8944 3.0577 1.327 3.9958-3.8024-1.8078-3.3901 2.4968 0.54435-4.175z" transform="matrix(1.0487 .089951 -.085930 1.0977 -10.263 -118.41)" style="fill-rule:evenodd;fill:#fff"/><path id="path8897" d="m100.33 146.67 4.1389-0.77244 1.2751-4.0126 2.0136 3.6976 4.2102-0.0273-2.8944 3.0577 1.327 3.9958-3.8024-1.8078-3.3901 2.4968 0.54435-4.175z" transform="matrix(1.0487 .089951 -.085930 1.0977 -10.263 -160.41)" style="fill-rule:evenodd;fill:#fff"/><path id="path8899" d="m100.33 146.67 4.1389-0.77244 1.2751-4.0126 2.0136 3.6976 4.2102-0.0273-2.8944 3.0577 1.327 3.9958-3.8024-1.8078-3.3901 2.4968 0.54435-4.175z" transform="matrix(1.0487 .089951 -.085930 1.0977 -10.263 -139.41)" style="fill-rule:evenodd;fill:#fff"/><path id="path8901" d="m100.33 146.67 4.1389-0.77244 1.2751-4.0126 2.0136 3.6976 4.2102-0.0273-2.8944 3.0577 1.327 3.9958-3.8024-1.8078-3.3901 2.4968 0.54435-4.175z" transform="matrix(1.0487 .089951 -.085930 1.0977 27.737 -107.41)" style="fill-rule:evenodd;fill:#fff"/><path id="path8903" d="m100.33 146.67 4.1389-0.77244 1.2751-4.0126 2.0136 3.6976 4.2102-0.0273-2.8944 3.0577 1.327 3.9958-3.8024-1.8078-3.3901 2.4968 0.54435-4.175z" transform="matrix(1.0487 .089951 -.085930 1.0977 2.7366 -107.41)" style="fill-rule:evenodd;fill:#fff"/><path id="path8905" d="m100.33 146.67 4.1389-0.77244 1.2751-4.0126 2.0136 3.6976 4.2102-0.0273-2.8944 3.0577 1.327 3.9958-3.8024-1.8078-3.3901 2.4968 0.54435-4.175z" transform="matrix(1.0487 .089951 -.085930 1.0977 2.7366 -149.41)" style="fill-rule:evenodd;fill:#fff"/><path id="path8907" d="m100.33 146.67 4.1389-0.77244 1.2751-4.0126 2.0136 3.6976 4.2102-0.0273-2.8944 3.0577 1.327 3.9958-3.8024-1.8078-3.3901 2.4968 0.54435-4.175z" transform="matrix(1.0487 .089951 -.085930 1.0977 2.7366 -128.41)" style="fill-rule:evenodd;fill:#fff"/><path id="path8909" d="m100.33 146.67 4.1389-0.77244 1.2751-4.0126 2.0136 3.6976 4.2102-0.0273-2.8944 3.0577 1.327 3.9958-3.8024-1.8078-3.3901 2.4968 0.54435-4.175z" transform="matrix(1.0487 .089951 -.085930 1.0977 40.737 -118.41)" style="fill-rule:evenodd;fill:#fff"/><path id="path8911" d="m100.33 146.67 4.1389-0.77244 1.2751-4.0126 2.0136 3.6976 4.2102-0.0273-2.8944 3.0577 1.327 3.9958-3.8024-1.8078-3.3901 2.4968 0.54435-4.175z" transform="matrix(1.0487 .089951 -.085930 1.0977 14.737 -118.41)" style="fill-rule:evenodd;fill:#fff"/><path id="path8913" d="m100.33 146.67 4.1389-0.77244 1.2751-4.0126 2.0136 3.6976 4.2102-0.0273-2.8944 3.0577 1.327 3.9958-3.8024-1.8078-3.3901 2.4968 0.54435-4.175z" transform="matrix(1.0487 .089951 -.085930 1.0977 14.737 -160.41)" style="fill-rule:evenodd;fill:#fff"/><path id="path8915" d="m100.33 146.67 4.1389-0.77244 1.2751-4.0126 2.0136 3.6976 4.2102-0.0273-2.8944 3.0577 1.327 3.9958-3.8024-1.8078-3.3901 2.4968 0.54435-4.175z" transform="matrix(1.0487 .089951 -.085930 1.0977 14.737 -139.41)" style="fill-rule:evenodd;fill:#fff"/><path id="path8917" d="m100.33 146.67 4.1389-0.77244 1.2751-4.0126 2.0136 3.6976 4.2102-0.0273-2.8944 3.0577 1.327 3.9958-3.8024-1.8078-3.3901 2.4968 0.54435-4.175z" transform="matrix(1.0487 .089951 -.085930 1.0977 40.737 -160.41)" style="fill-rule:evenodd;fill:#fff"/><path id="path8919" d="m100.33 146.67 4.1389-0.77244 1.2751-4.0126 2.0136 3.6976 4.2102-0.0273-2.8944 3.0577 1.327 3.9958-3.8024-1.8078-3.3901 2.4968 0.54435-4.175z" transform="matrix(1.0487 .089951 -.085930 1.0977 27.737 -149.41)" style="fill-rule:evenodd;fill:#fff"/><path id="path8921" d="m100.33 146.67 4.1389-0.77244 1.2751-4.0126 2.0136 3.6976 4.2102-0.0273-2.8944 3.0577 1.327 3.9958-3.8024-1.8078-3.3901 2.4968 0.54435-4.175z" transform="matrix(1.0487 .089951 -.085930 1.0977 40.737 -139.41)" style="fill-rule:evenodd;fill:#fff"/><path id="path8923" d="m100.33 146.67 4.1389-0.77244 1.2751-4.0126 2.0136 3.6976 4.2102-0.0273-2.8944 3.0577 1.327 3.9958-3.8024-1.8078-3.3901 2.4968 0.54435-4.175z" transform="matrix(1.0487 .089951 -.085930 1.0977 27.737 -128.41)" style="fill-rule:evenodd;fill:#fff"/></g><g id="layer7" transform="translate(.5 -.5)"><path id="path3835" d="m-0.44933 200.45 381.03-198.61-0.89 199.06z" style="fill:#fff"/></g><g id="layer8" transform="translate(.5 -.5)"><path id="path3839" d="m220.56 200.2-0.31953-72.639 158.65 0.15886 0.22467 72.321z" style="fill:#00247d"/><path id="path3843" d="m379.01 1.3952-128.96 68.298h128.73z" style="fill:#00247d"/><path id="path3845" d="m-1.4253e-8 200.22 141.54-73.69l19.771 0.22467-0.44933 73.69z" style="fill:#00247d"/></g><g id="layer9" transform="translate(.5 -.5)"><path id="path3847" d="m379.85 180.2-0.41083 19.538-33.127 2.0605-130.02-68.203 1.4831-9.5152 57.668 1.5727z" style="fill:#fff"/><path id="path3855" d="m380.13 0.49656-133.45 70.994l41.339 0.89866 91.439-48.528z" style="fill:#fff"/><path id="path3859" d="m-0.44933 199.55 148.59-76.35l15.232 0.58094 0.0545 14.497-116.63 61.72z" style="fill:#fff"/><path id="path4355" d="m-0.674 199.78 146.56-75.53l15.425 0.0545-0.44933 7.8474-129.42 67.85z" style="fill:#cf142b"/><path id="path4357" d="m238.15 125.41 28.757 0.89866 112.33 60.21-0.44933 13.031z" style="fill:#cf142b"/></g><g id="layer3" transform="translate(.5 -.5)"><path id="path3058" d="m378.97 116.66-218.89-0.22466 72.581-37.175 146.34 0.29047z" style="fill:#cf142b"/><path id="path3060" d="m209.21 199.54 0.44934-107.53-37.86 19.142 0.0771 88.803z" style="fill:#cf142b"/></g><g id="layer1" transform="translate(.5 -.5)"><rect id="rect8764" width="379" height="199" x="0" y="1" style="stroke:#000;fill:none"/></g><metadata/></svg>